<svg width="241" height="100" viewBox="0 0 241 100" fill="none" xmlns="http://www.w3.org/2000/svg">
<path d="M126.802 46.911L123.701 50.2949L122.151 55.5897L116.69 55.595L114.999 60.9306L107.34 65.2586L106.154 71.3673L94 77.5L93 78V33L150 34V38L141.044 38.4619L137.656 47.2589L130.678 48.7784L126.802 46.911Z" fill="black" fill-opacity="0.6"/>
<path d="M94.5 21.5C94.5 18.3284 97.3284 15.5 100.5 15.5H131.5L147.5 32.5V34.9117L139.367 36.5973L136.221 45.5241L130.575 46.9248L126.101 44.9259L122.142 49.5047L120.941 54.0933L115.508 54.2552L113.833 60.1247L111.555 61.5H94.5V21.5Z" fill="#BBD6FF"/>
<path d="M119.876 61.5H147.5V38.9608L147.368 38.9626L142.611 42.3777L142.756 46.5989L138.335 47.9706L136.846 51.9231L133.075 54.4508L129.975 52.8917L127.669 56.7099L124.378 61.4154L120.293 60.7436L119.876 61.5Z" fill="#BBD6FF"/>
<path d="M92 79L94.059 77.416L105.206 70.8546L106.214 64.7242L113.833 60.1247L115.508 54.2552L120.941 54.0933L121.797 50.8207L110.137 40.5081C110.124 40.4965 110.111 40.4851 110.098 40.474C108.535 39.1868 106.307 39.1015 104.652 40.2628L95 46.6972C93 48 92 50 92 50V78.5C92 78.9386 92 79 92 79Z" fill="#71E175"/>
<path d="M102.234 87H141.5C146.328 87 150 83.3284 150 78.5V55.8929C150 55.8929 148.148 53.9944 147 52.9846L141.888 48.0853C141.539 47.733 141.141 47.4475 140.714 47.2326L138.335 47.9706L136.846 51.9231L133.075 54.4508L129.975 52.8917L128.498 55.3376L131.182 59.1209L127.943 56.256L127.669 56.7099L124.378 61.4154L120.293 60.7436L117.5 68V76L111.5 80.5L107 84L102.234 87Z" fill="#71E175"/>
<path fill-rule="evenodd" clip-rule="evenodd" d="M92 21.5C92 16.6716 95.6716 13 100.5 13H131.5C131.913 13 132.307 13.17 132.591 13.4701L149.591 31.4701C149.853 31.7485 150 32.117 150 32.5V34.3936L147 35.0154V34H132.5C131.119 34 130 32.8807 130 31.5V16H100.5C97.3284 16 95 18.3284 95 21.5V76.8621L94.059 77.416L92 79C92 79 92 78.9386 92 78.5V21.5ZM133 18.2728L145.02 31H133V18.2728Z" fill="#919191"/>
<path d="M102.234 87H141.5C146.328 87 150 83.3284 150 78.5V38.9263L147.368 38.9626L147 39.2268V78.5C147 81.6716 144.672 84 141.5 84H107L102.234 87Z" fill="#919191"/>
<path d="M145.02 31L133 18.2728V31H145.02Z" fill="white" fill-opacity="0.5"/>
<path d="M126.5 43.5C128.709 43.5 130.5 41.7091 130.5 39.5C130.5 37.2909 128.709 35.5 126.5 35.5C124.291 35.5 122.5 37.2909 122.5 39.5C122.5 41.7091 124.291 43.5 126.5 43.5Z" fill="#FFE600"/>
</svg>
