<svg width="181" height="42" viewBox="0 0 181 42" fill="none" xmlns="http://www.w3.org/2000/svg">
<path d="M0 8C0 3.58172 3.58172 0 8 0H28C36.8366 0 44 7.16344 44 16V41C44 41.5523 43.5523 42 43 42H10C4.47715 42 0 37.5228 0 32V8Z" fill="url(#paint0_linear_46_191)"/>
<path d="M12.2715 27.4324V25.0441L14.7208 25.0441V10.7147H10.4493V11.9089H8.01958L8 10.7147H8.01958L8.05873 8H25.0273V10.7147V11.9089H22.5976V10.7147H18.3457V25.0441L20.7754 25.0441V27.4324L12.2715 27.4324Z" fill="white"/>
<path d="M32.9433 18.4765H36V34H32.9433L25.6543 23.253V34H22.5976V18.4765H25.6543L32.9433 29.2235V18.4765Z" fill="white"/>
<path d="M73.1187 11.7266V29.5H70.0791V11.7266H73.1187ZM78.6973 11.7266V14.168H64.5493V11.7266H78.6973ZM85.3989 29.7441C84.4224 29.7441 83.5394 29.5854 82.75 29.2681C81.9688 28.9425 81.3014 28.4909 80.748 27.9131C80.2028 27.3353 79.7837 26.6558 79.4907 25.8745C79.1978 25.0933 79.0513 24.251 79.0513 23.3477V22.8594C79.0513 21.8258 79.2018 20.89 79.5029 20.0518C79.804 19.2135 80.2231 18.4974 80.7603 17.9033C81.2974 17.3011 81.9321 16.8413 82.6646 16.5239C83.397 16.2065 84.1904 16.0479 85.0449 16.0479C85.9889 16.0479 86.8149 16.2065 87.5229 16.5239C88.231 16.8413 88.8169 17.2889 89.2808 17.8667C89.7528 18.4364 90.1027 19.1159 90.3306 19.9053C90.5666 20.6947 90.6846 21.5654 90.6846 22.5176V23.7749H80.4795V21.6631H87.7793V21.4312C87.763 20.9022 87.6572 20.4058 87.4619 19.9419C87.2747 19.478 86.9858 19.1037 86.5952 18.8188C86.2046 18.534 85.6838 18.3916 85.0327 18.3916C84.5444 18.3916 84.109 18.4974 83.7266 18.709C83.3522 18.9124 83.0389 19.2095 82.7866 19.6001C82.5343 19.9907 82.339 20.4627 82.2007 21.0161C82.0705 21.5614 82.0054 22.1758 82.0054 22.8594V23.3477C82.0054 23.9255 82.0827 24.4626 82.2373 24.959C82.4001 25.4473 82.6361 25.8745 82.9453 26.2407C83.2546 26.6069 83.6289 26.8958 84.0684 27.1074C84.5078 27.3109 85.0083 27.4126 85.5698 27.4126C86.2778 27.4126 86.9085 27.2702 87.4619 26.9854C88.0153 26.7005 88.4954 26.2977 88.9023 25.7769L90.4526 27.2783C90.1678 27.6934 89.7975 28.0921 89.3418 28.4746C88.8861 28.849 88.3286 29.1541 87.6694 29.3901C87.0184 29.6261 86.2616 29.7441 85.3989 29.7441ZM98.375 27.4004C98.8551 27.4004 99.2865 27.3068 99.6689 27.1196C100.06 26.9243 100.373 26.6558 100.609 26.314C100.853 25.9722 100.987 25.5775 101.012 25.1299H103.783C103.766 25.9844 103.514 26.7616 103.026 27.4614C102.538 28.1613 101.891 28.7188 101.085 29.1338C100.279 29.5407 99.3882 29.7441 98.4116 29.7441C97.4025 29.7441 96.5236 29.5732 95.7749 29.2314C95.0262 28.8815 94.4036 28.4014 93.9072 27.791C93.4108 27.1807 93.0365 26.4767 92.7842 25.6792C92.54 24.8817 92.418 24.0272 92.418 23.1157V22.6885C92.418 21.777 92.54 20.9225 92.7842 20.125C93.0365 19.3193 93.4108 18.6113 93.9072 18.001C94.4036 17.3906 95.0262 16.9146 95.7749 16.5728C96.5236 16.2228 97.3984 16.0479 98.3994 16.0479C99.4574 16.0479 100.385 16.2594 101.183 16.6826C101.98 17.0977 102.607 17.6795 103.062 18.4282C103.526 19.1688 103.766 20.0314 103.783 21.0161H101.012C100.987 20.5278 100.865 20.0884 100.646 19.6978C100.434 19.299 100.133 18.9816 99.7422 18.7456C99.3597 18.5096 98.8999 18.3916 98.3628 18.3916C97.7687 18.3916 97.2764 18.5137 96.8857 18.7578C96.4951 18.9938 96.1899 19.3193 95.9702 19.7344C95.7505 20.1413 95.5918 20.6011 95.4941 21.1138C95.4046 21.6183 95.3599 22.1432 95.3599 22.6885V23.1157C95.3599 23.661 95.4046 24.1899 95.4941 24.7026C95.5837 25.2153 95.7383 25.6751 95.958 26.082C96.1859 26.4808 96.4951 26.8022 96.8857 27.0464C97.2764 27.2824 97.7728 27.4004 98.375 27.4004ZM108.946 10.75V29.5H106.017V10.75H108.946ZM108.434 22.4077L107.481 22.3955C107.49 21.484 107.616 20.6418 107.86 19.8687C108.112 19.0955 108.462 18.4242 108.91 17.8545C109.365 17.2767 109.911 16.8332 110.545 16.5239C111.18 16.2065 111.884 16.0479 112.657 16.0479C113.308 16.0479 113.894 16.1374 114.415 16.3164C114.944 16.4954 115.4 16.7843 115.782 17.1831C116.165 17.5737 116.454 18.0864 116.649 18.7212C116.852 19.3478 116.954 20.1128 116.954 21.0161V29.5H114V20.9917C114 20.3569 113.906 19.8524 113.719 19.478C113.54 19.1037 113.276 18.8351 112.926 18.6724C112.576 18.5015 112.149 18.416 111.644 18.416C111.115 18.416 110.647 18.5218 110.24 18.7334C109.841 18.945 109.508 19.2339 109.239 19.6001C108.971 19.9663 108.767 20.3895 108.629 20.8696C108.499 21.3498 108.434 21.8625 108.434 22.4077ZM134.325 11.7266V29.5H131.261L123.29 16.7681V29.5H120.226V11.7266H123.29L131.285 24.4829V11.7266H134.325ZM143.504 29.7441C142.528 29.7441 141.645 29.5854 140.855 29.2681C140.074 28.9425 139.407 28.4909 138.854 27.9131C138.308 27.3353 137.889 26.6558 137.596 25.8745C137.303 25.0933 137.157 24.251 137.157 23.3477V22.8594C137.157 21.8258 137.307 20.89 137.608 20.0518C137.91 19.2135 138.329 18.4974 138.866 17.9033C139.403 17.3011 140.038 16.8413 140.77 16.5239C141.502 16.2065 142.296 16.0479 143.15 16.0479C144.094 16.0479 144.92 16.2065 145.628 16.5239C146.336 16.8413 146.922 17.2889 147.386 17.8667C147.858 18.4364 148.208 19.1159 148.436 19.9053C148.672 20.6947 148.79 21.5654 148.79 22.5176V23.7749H138.585V21.6631H145.885V21.4312C145.868 20.9022 145.763 20.4058 145.567 19.9419C145.38 19.478 145.091 19.1037 144.701 18.8188C144.31 18.534 143.789 18.3916 143.138 18.3916C142.65 18.3916 142.215 18.4974 141.832 18.709C141.458 18.9124 141.144 19.2095 140.892 19.6001C140.64 19.9907 140.444 20.4627 140.306 21.0161C140.176 21.5614 140.111 22.1758 140.111 22.8594V23.3477C140.111 23.9255 140.188 24.4626 140.343 24.959C140.506 25.4473 140.742 25.8745 141.051 26.2407C141.36 26.6069 141.734 26.8958 142.174 27.1074C142.613 27.3109 143.114 27.4126 143.675 27.4126C144.383 27.4126 145.014 27.2702 145.567 26.9854C146.121 26.7005 146.601 26.2977 147.008 25.7769L148.558 27.2783C148.273 27.6934 147.903 28.0921 147.447 28.4746C146.992 28.849 146.434 29.1541 145.775 29.3901C145.124 29.6261 144.367 29.7441 143.504 29.7441ZM154.674 26.5703L157.726 16.292H159.605L159.093 19.3682L156.017 29.5H154.332L154.674 26.5703ZM152.879 16.292L155.26 26.6191L155.455 29.5H153.575L149.999 16.292H152.879ZM162.462 26.4971L164.769 16.292H167.638L164.073 29.5H162.193L162.462 26.4971ZM159.923 16.292L162.938 26.4482L163.316 29.5H161.632L158.519 19.356L158.006 16.292H159.923ZM177.049 25.9233C177.049 25.6304 176.976 25.3659 176.83 25.1299C176.683 24.8857 176.402 24.666 175.987 24.4707C175.58 24.2754 174.978 24.0964 174.181 23.9336C173.481 23.779 172.838 23.5959 172.252 23.3843C171.674 23.1646 171.178 22.9001 170.763 22.5908C170.348 22.2816 170.026 21.9154 169.798 21.4922C169.57 21.069 169.457 20.5807 169.457 20.0273C169.457 19.4902 169.575 18.9816 169.811 18.5015C170.047 18.0213 170.384 17.5981 170.824 17.2319C171.263 16.8657 171.796 16.5768 172.423 16.3652C173.058 16.1536 173.766 16.0479 174.547 16.0479C175.654 16.0479 176.602 16.235 177.391 16.6094C178.189 16.9756 178.799 17.4761 179.222 18.1108C179.645 18.7375 179.857 19.4455 179.857 20.2349H176.915C176.915 19.8849 176.826 19.5594 176.646 19.2583C176.476 18.9491 176.215 18.7008 175.865 18.5137C175.515 18.3184 175.076 18.2207 174.547 18.2207C174.042 18.2207 173.623 18.3021 173.29 18.4648C172.964 18.6195 172.72 18.8229 172.557 19.0752C172.403 19.3275 172.325 19.6042 172.325 19.9053C172.325 20.125 172.366 20.3244 172.447 20.5034C172.537 20.6743 172.683 20.833 172.887 20.9795C173.09 21.1178 173.367 21.248 173.717 21.3701C174.075 21.4922 174.522 21.6102 175.06 21.7241C176.069 21.9357 176.935 22.2083 177.66 22.542C178.392 22.8675 178.954 23.2907 179.344 23.8115C179.735 24.3242 179.93 24.9753 179.93 25.7646C179.93 26.3506 179.804 26.8877 179.552 27.376C179.308 27.8561 178.95 28.2752 178.478 28.6333C178.006 28.9832 177.44 29.2559 176.781 29.4512C176.13 29.6465 175.397 29.7441 174.583 29.7441C173.387 29.7441 172.374 29.5326 171.544 29.1094C170.714 28.6781 170.083 28.1287 169.652 27.4614C169.229 26.786 169.017 26.0861 169.017 25.3618H171.861C171.894 25.9071 172.044 26.3424 172.313 26.668C172.59 26.9854 172.931 27.2173 173.338 27.3638C173.753 27.5021 174.181 27.5713 174.62 27.5713C175.149 27.5713 175.593 27.5021 175.951 27.3638C176.309 27.2173 176.581 27.022 176.769 26.7778C176.956 26.5256 177.049 26.2407 177.049 25.9233Z" fill="#090909"/>
<defs>
<linearGradient id="paint0_linear_46_191" x1="-0.483888" y1="-0.226562" x2="43.5161" y2="41.7734" gradientUnits="userSpaceOnUse">
<stop offset="0.0729167" stop-color="#063DFF"/>
<stop offset="0.9999" stop-color="#AF04FF"/>
<stop offset="1" stop-color="#B210FF"/>
</linearGradient>
</defs>
</svg>
